<?xml version="1.0" encoding="utf-8"?>
<!-- Generator: Adobe Illustrator 24.2.1, SVG Export Plug-In . SVG Version: 6.00 Build 0)  -->
<svg version="1.1" id="Layer_1" xmlns="http://www.w3.org/2000/svg" xmlns:xlink="http://www.w3.org/1999/xlink" x="0px" y="0px"
	 viewBox="0 0 200 200" style="enable-background:new 0 0 200 200;" xml:space="preserve">
<style type="text/css">
	.st0{fill-rule:evenodd;clip-rule:evenodd;fill:#E44F24;}
</style>
<g>
	<path class="st0" d="M100,1.36c54.48,0,98.64,44.16,98.64,98.64c0,54.48-44.16,98.64-98.64,98.64c-54.48,0-98.64-44.16-98.64-98.64
		C1.36,45.52,45.52,1.36,100,1.36z M51.99,66.39l38.03,30.69c0.03,0.02,0.06,0.05,0.09,0.07l9.89,7.98L148,66.39
		c-0.1,0-0.21,0-0.31,0H52.31C52.2,66.39,52.1,66.39,51.99,66.39z M155.08,69.26l-37.74,30.45l38.07,30.71
		c0.01-0.02,0.03-0.03,0.04-0.04c1.99-1.99,3.23-4.74,3.23-7.76V77.37c0-3.02-1.24-5.77-3.23-7.76
		C155.33,69.49,155.2,69.38,155.08,69.26z M148.68,133.57L112.03,104l-9.89,7.98c-1.2,1-2.97,1.05-4.23,0.04L87.97,104l-36.65,29.57
		c0.33,0.03,0.66,0.04,0.99,0.04h95.38C148.02,133.61,148.35,133.6,148.68,133.57z M44.59,130.43l38.07-30.71L44.92,69.26
		c-0.13,0.12-0.25,0.23-0.37,0.36c-1.99,1.99-3.23,4.74-3.23,7.76v45.25c0,3.02,1.24,5.77,3.23,7.76
		C44.56,130.4,44.58,130.41,44.59,130.43z"/>
</g>
</svg>
