<?xml version="1.0" encoding="utf-8"?>
<!-- Generator: Adobe Illustrator 24.2.1, SVG Export Plug-In . SVG Version: 6.00 Build 0)  -->
<svg version="1.1" id="Layer_1" xmlns="http://www.w3.org/2000/svg" xmlns:xlink="http://www.w3.org/1999/xlink" x="0px" y="0px"
	 viewBox="0 0 200 200" style="enable-background:new 0 0 200 200;" xml:space="preserve">
<style type="text/css">
	.st0{fill-rule:evenodd;clip-rule:evenodd;fill:#E44F24;}
</style>
<g>
	<path class="st0" d="M100,3.8c53.13,0,96.2,43.07,96.2,96.2c0,53.13-43.07,96.2-96.2,96.2c-53.13,0-96.2-43.07-96.2-96.2
		C3.8,46.87,46.87,3.8,100,3.8z M53.22,76.81c0.49,7.41,2.41,12.77,4.95,18.76c5.53,13.02,28.8,34.82,41.27,42.2
		c8.3,4.91,22.39,10.49,32.32,7.01c5.33-1.87,10.15-5.96,13.01-10.73c3.64-6.07,2-7.91-1.69-11.98c-2.84-3.13-6.21-5.59-9.53-8.18
		l-3.54-2.5c-2.31-1.54-4.81-3.88-8.48-2.15c-2.44,1.15-3.62,3.8-5.43,6.52c-2.98,4.45-2.78,5.54-6.34,3.43
		c-5.86-3.49-28.67-22.05-30.44-29.29c-0.4-1.62,1.28-2.42,2.47-3.33c1.38-1.05,5.93-4.31,6.77-5.16
		c6.1-6.16-8.43-20.88-12.92-24.83c-2.6-2.28-4.71-3.31-8.74-1.41c-3.41,1.61-6.05,3.97-8.24,6.58
		C55.23,65.82,52.84,71.1,53.22,76.81z M100.05,85.1c0.77,6.12,8.57,2.12,10.29,10.32c0.38,1.82,0.73,2.47,1.82,3.45
		c3.34,2.99,9,0.22,8.29-4.65c-0.88-6.02-4.43-10.15-8.17-12.5c-1.7-1.07-5.31-2.74-7.82-2.46C101.77,79.55,99.66,82,100.05,85.1z
		 M100.36,69.52c0.37,2.28,2.07,4.12,4.48,4.38c3.2,0.35,4.62,0.18,7.6,1.3c4.39,1.65,7.71,4.54,9.87,7.78
		c4.36,6.54,2.53,10.86,4.06,13.76c2.18,4.12,9.66,3.44,9.46-3.21c-0.17-5.69-1.56-9.84-3.8-14.06
		c-4.04-7.62-11.84-13.24-20.41-15.06c-1.94-0.41-6.23-1.02-7.98-0.31C101.45,64.99,99.98,67.18,100.36,69.52z"/>
</g>
</svg>
