<?xml version="1.0" encoding="utf-8"?>
<!-- Generator: Adobe Illustrator 24.2.1, SVG Export Plug-In . SVG Version: 6.00 Build 0)  -->
<svg version="1.1" id="Layer_1" xmlns="http://www.w3.org/2000/svg" xmlns:xlink="http://www.w3.org/1999/xlink" x="0px" y="0px"
	 viewBox="0 0 200 200" style="enable-background:new 0 0 200 200;" xml:space="preserve">
<style type="text/css">
	.st0{fill-rule:evenodd;clip-rule:evenodd;fill:#E44F24;}
</style>
<g>
	<path class="st0" d="M100,1.36c54.47,0,98.64,44.16,98.64,98.64c0,54.48-44.16,98.64-98.64,98.64c-54.48,0-98.64-44.16-98.64-98.64
		C1.36,45.52,45.52,1.36,100,1.36z M99.85,73.17c-5.26-0.01-9.98,0.38-15.13,0.72c0.47-9.41,7.74-26.82,15.74-26.29
		c7.02,0.46,14.96,17.2,14.64,25.94C111.44,74.02,104.1,73.18,99.85,73.17z M82.84,81.81c5.15-0.79,30.61-2.93,33.74,0.21
		c2.51,2.52,1.78,28.83,0.51,33.31c-6.86,1.75-28.11,2.44-34.38-0.2C80.92,104.21,81.83,92.67,82.84,81.81z M123.59,74.98
		c-1.37-4.34-2.26-8.77-3.76-13.08c-1.51-4.35-3.95-8.24-5.04-11.6c17.74,1.6,28.85,19.4,34.95,33.87
		c-2.16-1.71-10.54-5.04-13.27-5.93C132.16,76.84,127.98,76,123.59,74.98z M125.22,113.82l-0.52-30.77
		c9.35,0.07,27.77,7.64,27.6,15.64C152.13,107.09,131.07,114.71,125.22,113.82z M126.75,121.43l9.96-2.69
		c2.19-0.71,12.01-4.62,13.63-5.87c0.36,3.89-3.52,11.11-5.62,14.56c-2.69,4.44-8.62,11.07-12.37,13.87
		c-2.03,1.51-3.33,2.36-5.26,3.53c-3.22,1.95-8.38,4.4-12.46,5.26c1.34-4.13,3.78-8.12,5.44-12.97c2.63-7.73,1.97-13.65,5.19-15.11
		C125.38,121.95,126.54,121.5,126.75,121.43z M62.81,78.5c-2.99,1.05-9.83,4.36-11.95,4.7c2.63-14.31,20.65-31.29,34.2-33.02
		c-1.27,3.96-3.43,7.84-4.91,12c-1.56,4.39-2.34,8.89-3.85,12.82C71.66,76.23,67.32,76.92,62.81,78.5z M75.02,83l-0.35,30.94
		c-8.95,0.39-26.87-7.97-26.98-15.23C47.57,90.26,65.45,84.07,75.02,83z M76.26,122.33c2.1,10.4,4.71,19.29,9.13,27.26
		c-7.57,0.22-19.72-9.62-22.84-12.9c-4-4.21-12.26-14.52-12.64-23.66c3.9,1.67,7.34,3.77,12.05,5.39
		C66.61,120.01,71.55,121.15,76.26,122.33z M100.52,124.07l15.29-0.72c-0.89,10.36-7.41,29.09-15.96,29.05
		c-7.48-0.04-15.37-19.55-15.73-28.97l15.72,0.58L100.52,124.07z M157.54,100c0-31.78-25.76-57.54-57.54-57.54
		S42.46,68.22,42.46,100s25.77,57.55,57.55,57.55S157.54,131.78,157.54,100z"/>
</g>
</svg>
